<svg width="800" height="800" viewBox="0 0 465 465" xml:space="preserve" xmlns="http://www.w3.org/2000/svg">
  <path d="M397 68C353 24.3 294.6 0 232.4 0S111.9 24.2 68.1 68C24 112 0 170.4 0 232.6S24.2 353.2 68 397c44 44 102.3 68.1 164.5 68.1s120.6-24.2 164.4-68c44-44 68.1-102.3 68.1-164.5S440.8 112 397 68.2zM232.4 450C112.5 450 15 352.4 15 232.5S112.6 15 232.5 15 450 112.6 450 232.5 352.4 450 232.5 450z"/>
  <path d="M232.5 412.5c-99.3 0-180-80.7-180-180a7.5 7.5 0 1 0-15 0 194.5 194.5 0 0 0 195 195 7.5 7.5 0 1 0 0-15zm0-360a180 180 0 0 1 116.7 43 7.5 7.5 0 0 0 10.6-1 7.5 7.5 0 0 0-.9-10.5 195.1 195.1 0 0 0-126.4-46.5 7.5 7.5 0 1 0 0 15zM381 106a7.5 7.5 0 0 0-11.4 9.8c27.7 32.5 42.9 74 42.9 116.7a7.5 7.5 0 1 0 15 0A195 195 0 0 0 381 106zM232.5 75a7.5 7.5 0 1 0 0 15C311.1 90 375 154 375 232.5a7.5 7.5 0 1 0 15 0c0-42.1-16.4-81.7-46.1-111.4S274.6 75 232.5 75z"/>
  <path d="M164 374.4a7.5 7.5 0 0 0 10-3.5c1.8-3.7.2-8.2-3.5-10A141.5 141.5 0 0 1 90 232.5a7.5 7.5 0 1 0-15 0 157 157 0 0 0 89 141.9zm68.5.6a144 144 0 0 1-35.3-4.4 7.5 7.5 0 0 0-3.6 14.6c12.6 3.2 25.7 4.8 38.9 4.8a7.5 7.5 0 1 0 0-15zm0-37.5a105 105 0 0 1-78.5-35.2 7.5 7.5 0 0 0-11.2 10 120.1 120.1 0 0 0 89.7 40.2 7.5 7.5 0 1 0 0-15z"/>
  <path d="M131.6 289.9a7.5 7.5 0 0 0 6.7-10.8 104 104 0 0 1-10.8-46.6 7.5 7.5 0 1 0-15 0 119 119 0 0 0 12.4 53.2c1.3 2.7 4 4.2 6.7 4.2zm100.9-177.4a7.5 7.5 0 1 0 0 15c57.9 0 105 47.1 105 105a7.5 7.5 0 1 0 15 0c0-66.2-53.8-120-120-120zm0 100a20 20 0 1 0 0 40 20 20 0 0 0 0-40zm0 25a5 5 0 1 1 0-10 5 5 0 0 1 0 10z"/>
  <path d="M232.5 149.5a83 83 0 0 0 0 166 83 83 0 0 0 0-166zm0 151a68 68 0 1 1 .2-136.2 68 68 0 0 1-.2 136.2z"/>
</svg>
